<?xml version="1.0" encoding="UTF-8"?>
<!DOCTYPE svg PUBLIC "-//W3C//DTD SVG 1.1//EN" "http://www.w3.org/Graphics/SVG/1.1/DTD/svg11.dtd">
<!-- Creator: CorelDRAW -->
<svg xmlns="http://www.w3.org/2000/svg" xml:space="preserve" width="6.82666in" height="6.82666in" style="shape-rendering:geometricPrecision; text-rendering:geometricPrecision; image-rendering:optimizeQuality; fill-rule:evenodd; clip-rule:evenodd"
viewBox="0 0 6.82666 6.82666"
 xmlns:xlink="http://www.w3.org/1999/xlink">
 <defs>
  <style type="text/css">
   <![CDATA[
    .fil3 {fill:none}
    .fil0 {fill:#263238;fill-rule:nonzero}
    .fil2 {fill:#E68100;fill-rule:nonzero}
    .fil1 {fill:#FF8F00;fill-rule:nonzero}
   ]]>
  </style>
 </defs>
 <g id="Layer_x0020_1">
  <metadata id="CorelCorpID_0Corel-Layer"/>
  <path class="fil0" d="M3.71352 4.81925c0.556248,-0.311571 0.996909,-0.560008 1.59956,-0.90098l0.180323 0.136287 -1.95504 1.1011 -0.0167362 -0.0189528 0.191886 -0.317457z"/>
  <polygon class="fil0" points="2.03543,1.77687 3.30957,2.46146 2.8501,2.45278 1.93897,1.96006 "/>
  <polygon class="fil0" points="3.24426,2.39951 5.22666,3.41333 4.76719,3.40465 3.30667,2.66666 3.22631,2.41204 "/>
  <g id="_275116552">
   <polygon id="_275116816" class="fil1" points="1.78746,0.913031 1.9791,1.4531 2.55146,1.46822 2.65325,1.47091 2.57256,1.53291 2.11818,1.88203 2.28076,2.43137 2.30968,2.52907 2.2257,2.47143 1.75313,2.14709 1.28099,2.47143 1.19704,2.5291 1.22592,2.43137 1.38834,1.88174 0.934134,1.53305 0.853244,1.47095 0.955224,1.46822 1.52793,1.45285 1.71923,0.913031 1.75332,0.816823 "/>
   <polygon id="_275116792" class="fil2" points="1.78746,0.913031 1.9791,1.4531 2.55146,1.46822 2.65325,1.47091 2.57256,1.53291 2.11818,1.88203 2.28076,2.43137 2.30968,2.52907 2.2257,2.47143 1.75325,2.14717 1.75325,0.817028 1.75332,0.816823 "/>
  </g>
  <g id="_275116072">
   <polygon id="_275117248" class="fil1" points="3.34379,1.70154 3.53543,2.2416 4.10779,2.25672 4.20958,2.25941 4.12889,2.32141 3.67451,2.67054 3.83709,3.21987 3.86601,3.31757 3.78203,3.25994 3.30946,2.9356 2.83732,3.25994 2.75337,3.3176 2.78225,3.21987 2.94467,2.67025 2.49046,2.32156 2.40957,2.25946 2.51156,2.25672 3.08426,2.24135 3.27556,1.70154 3.30965,1.60533 "/>
   <polygon id="_275115952" class="fil2" points="3.34379,1.70154 3.53543,2.2416 4.10779,2.25672 4.20958,2.25941 4.12889,2.32141 3.67451,2.67054 3.83709,3.21987 3.86601,3.31757 3.78203,3.25993 3.30958,2.93568 3.30958,1.60553 3.30965,1.60533 "/>
  </g>
  <g id="_275116168">
   <polygon id="_275115928" class="fil1" points="5.10763,2.63533 5.29927,3.1754 5.87163,3.19052 5.97342,3.19321 5.89272,3.25521 5.43835,3.60433 5.60093,4.15367 5.62985,4.25137 5.54586,4.19374 5.0733,3.8694 4.60115,4.19374 4.51721,4.2514 4.54609,4.15367 4.7085,3.60405 4.2543,3.25535 4.17341,3.19326 4.27539,3.19052 4.84809,3.17515 5.03939,2.63533 5.07348,2.53913 "/>
   <polygon id="_275116048" class="fil2" points="5.10763,2.63533 5.29926,3.1754 5.87163,3.19052 5.97342,3.19321 5.89272,3.25521 5.43835,3.60433 5.60093,4.15367 5.62985,4.25137 5.54586,4.19373 5.07341,3.86948 5.07341,2.53933 5.07348,2.53913 "/>
  </g>
  <g id="_275116360">
   <polygon id="_275116264" class="fil1" points="2.83606,4.27996 3.27206,4.65185 3.7753,4.37876 3.86479,4.3302 3.82591,4.42424 3.60697,4.95378 4.02244,5.34822 4.09633,5.41838 3.99478,5.41045 3.42336,5.36585 3.17664,5.88281 3.13278,5.97472 3.10892,5.87565 2.97476,5.31844 2.40706,5.24357 2.30596,5.23024 2.39291,5.17688 2.8812,4.87722 2.77696,4.31407 2.75839,4.21371 "/>
   <polygon id="_275115880" class="fil2" points="2.83606,4.27996 3.27206,4.65185 3.7753,4.37876 3.86479,4.33019 3.82591,4.42424 3.60697,4.95378 4.02244,5.34822 4.09633,5.41838 3.99478,5.41045 3.4235,5.36586 2.75843,4.21392 2.75839,4.21371 "/>
  </g>
 </g>
 <rect class="fil3" width="6.82666" height="6.82666"/>
</svg>
