<svg xmlns="http://www.w3.org/2000/svg" xmlns:xlink="http://www.w3.org/1999/xlink" viewBox="0 0 258.96 217.2"><defs><style>.cls-1{isolation:isolate;}.cls-2{opacity:0.4;mix-blend-mode:multiply;fill:url(#linear-gradient);}.cls-3{fill:#a8dedb;stroke:#1f2687;}.cls-3,.cls-5,.cls-6{stroke-miterlimit:10;stroke-width:6px;}.cls-4{fill:#212683;}.cls-5{fill:#cec09f;}.cls-5,.cls-6{stroke:#212683;}.cls-6{fill:none;}</style><linearGradient id="linear-gradient" x1="538.97" y1="-392.94" x2="762.4" y2="-392.94" gradientTransform="translate(-93.05 863.54) rotate(-42)" gradientUnits="userSpaceOnUse"><stop offset="0" stop-color="#efa6c2"/><stop offset="1" stop-color="#96cdbd"/></linearGradient></defs><title>Time </title><g class="cls-1"><g id="Layer_2" data-name="Layer 2"><g id="Layer_1-2" data-name="Layer 1"><path class="cls-2" d="M171.63,75.85A53.78,53.78,0,1,0,66.11,67.16a68.07,68.07,0,1,0,62,100.32,68.09,68.09,0,1,0,43.57-91.63Z"/><polyline class="cls-3" points="119.64 41.53 119.64 23.49 144.63 23.49 144.63 41.53"/><rect class="cls-3" x="108.6" y="3" width="47.07" height="20.49" rx="10.25" ry="10.25"/><path class="cls-4" d="M54.41,20.59H52.05V18.24a2.9,2.9,0,0,0-5.8,0v2.35H43.9a2.9,2.9,0,0,0,0,5.8h2.35v2.35a2.9,2.9,0,0,0,5.8,0V26.39h2.35a2.9,2.9,0,0,0,0-5.8Z"/><path class="cls-4" d="M46.25,190.59H43.9v-2.35a2.9,2.9,0,0,0-5.8,0v2.35H35.75a2.9,2.9,0,0,0,0,5.8H38.1v2.35a2.9,2.9,0,0,0,5.8,0v-2.35h2.35a2.9,2.9,0,0,0,0-5.8Z"/><path class="cls-4" d="M215.94,10.35h-2.35V8a2.9,2.9,0,0,0-5.8,0v2.35h-2.35a2.9,2.9,0,0,0,0,5.8h2.35V18.5a2.9,2.9,0,0,0,5.8,0V16.15h2.35a2.9,2.9,0,0,0,0-5.8Z"/><path class="cls-5" d="M144.51,213.14a86.7,86.7,0,1,0-24.76,0"/><circle class="cls-3" cx="132.13" cy="127.33" r="61.31"/><path class="cls-4" d="M134.63,119V90.33c0-3.22-5-3.22-5,0V119c0,3.22,5,3.22,5,0Z"/><circle class="cls-6" cx="132.13" cy="127.33" r="8.33"/><path class="cls-6" d="M90.61,125.58v4.1a34.65,34.65,0,0,0,34.65,34.65h0"/><circle class="cls-4" cx="132.13" cy="213.99" r="3.21" transform="translate(-112.61 156.11) rotate(-45)"/></g></g></g></svg>