<?xml version="1.0" encoding="iso-8859-1"?>
<!-- Generator: Adobe Illustrator 22.0.1, SVG Export Plug-In . SVG Version: 6.00 Build 0)  -->
<svg version="1.1" xmlns="http://www.w3.org/2000/svg" xmlns:xlink="http://www.w3.org/1999/xlink" x="0px" y="0px"
	 viewBox="0 0 512 512" style="enable-background:new 0 0 512 512;" xml:space="preserve">
<g id="BULINE">
	<circle id="XMLID_3361_" style="fill:#FF50B5;" cx="256" cy="256" r="256"/>
</g>
<g id="Icons">
	<g id="XMLID_1817_">
		<g id="XMLID_1789_">
			<path id="XMLID_2520_" style="fill:#FFFFFF;" d="M499.687,185.449c0,33.244-10.18,64.116-27.586,89.661
				c-28.692,42.125-77.044,69.785-131.861,69.785c-54.817,0-103.169-27.66-131.861-69.785
				c-17.406-25.545-27.586-56.417-27.586-89.661s10.18-64.116,27.586-89.661c28.692-42.125,77.044-69.785,131.861-69.785
				c54.817,0,103.169,27.661,131.861,69.785C489.508,121.334,499.687,152.205,499.687,185.449z"/>
			<path id="XMLID_2465_" style="fill:#D1D1D1;" d="M380.508,339.781c-12.864,3.339-26.351,5.122-40.267,5.122
				c-88.061,0-159.446-71.385-159.446-159.446S252.18,26,340.241,26c13.916,0,27.403,1.782,40.267,5.133
				c-68.561,17.835-119.179,80.169-119.179,154.324S311.947,321.935,380.508,339.781z"/>
			<path id="XMLID_2517_" style="fill:#EDB758;" d="M499.687,185.449c0,33.244-10.18,64.116-27.586,89.661H208.38
				c-17.406-25.545-27.586-56.417-27.586-89.661s10.18-64.116,27.586-89.661h263.721
				C489.508,121.334,499.687,152.205,499.687,185.449z"/>
			<path id="XMLID_2522_" style="fill:#DBA437;" d="M261.328,185.46c0,33.244,10.169,64.105,27.575,89.65H208.38
				c-1.632-2.395-3.2-4.843-4.703-7.324c-0.999-1.664-1.976-3.339-2.921-5.036c-1.879-3.393-3.651-6.862-5.283-10.394
				c-0.816-1.772-1.611-3.554-2.362-5.358c-1.127-2.706-2.191-5.444-3.178-8.225c-0.655-1.858-1.278-3.726-1.868-5.605
				c-0.891-2.824-1.697-5.68-2.427-8.569c-0.483-1.933-0.934-3.877-1.353-5.831c-0.15-0.698-0.29-1.396-0.429-2.105
				c-0.107-0.505-0.204-1.009-0.301-1.514c-0.14-0.762-0.279-1.514-0.408-2.276c-0.344-1.955-0.644-3.909-0.913-5.884
				c0-0.064-0.011-0.14-0.021-0.215c-0.118-0.859-0.225-1.718-0.322-2.588c-0.097-0.816-0.193-1.643-0.268-2.469
				c-0.064-0.537-0.118-1.074-0.161-1.622c-0.075-0.762-0.14-1.525-0.193-2.298c-0.075-1.02-0.15-2.041-0.204-3.06
				c-0.054-0.956-0.107-1.922-0.14-2.878c-0.011-0.161-0.011-0.322-0.021-0.483c-0.032-0.924-0.054-1.836-0.075-2.76v-0.085
				c-0.021-1.02-0.032-2.051-0.032-3.071v-0.021c0-1.009,0.011-2.019,0.032-3.028v-0.193c0.021-0.837,0.043-1.675,0.075-2.512
				c0-0.268,0.011-0.537,0.032-0.805c0.032-0.913,0.075-1.826,0.129-2.738c0.054-0.988,0.118-1.986,0.193-2.974
				c0.064-0.741,0.118-1.482,0.193-2.212c0.054-0.612,0.107-1.214,0.172-1.815c0.097-0.956,0.193-1.912,0.311-2.856
				c0.075-0.633,0.15-1.256,0.236-1.879c0.032-0.247,0.064-0.494,0.097-0.741c0.258-1.879,0.548-3.748,0.87-5.605
				c0.097-0.537,0.193-1.074,0.29-1.621c0.172-0.934,0.354-1.869,0.548-2.792c0.107-0.591,0.236-1.181,0.365-1.761
				c0.376-1.793,0.795-3.576,1.235-5.347c0.032-0.118,0.064-0.236,0.097-0.365c0.472-1.89,0.988-3.758,1.535-5.627
				c0.247-0.848,0.505-1.686,0.762-2.523c0.054-0.171,0.107-0.354,0.161-0.526c0.279-0.87,0.558-1.74,0.848-2.598
				c0.268-0.816,0.548-1.632,0.838-2.449c0.097-0.279,0.193-0.558,0.301-0.837c0.268-0.762,0.548-1.514,0.827-2.266
				c0.301-0.795,0.601-1.589,0.913-2.373c0.054-0.129,0.097-0.247,0.15-0.376c0.322-0.816,0.655-1.632,0.999-2.449
				c0.848-2.051,1.75-4.08,2.684-6.088c0.344-0.73,0.687-1.46,1.042-2.18c0.387-0.795,0.773-1.6,1.181-2.384
				c0.107-0.225,0.215-0.44,0.322-0.644c0.376-0.73,0.752-1.449,1.138-2.169c0.354-0.676,0.719-1.353,1.095-2.019
				c0.204-0.365,0.397-0.741,0.612-1.095c0.365-0.665,0.741-1.321,1.117-1.976c0.977-1.675,1.976-3.339,3.007-4.971
				c0.515-0.816,1.042-1.632,1.568-2.438c0.064-0.107,0.129-0.204,0.193-0.301c0.472-0.708,0.934-1.417,1.417-2.115h80.534
				C271.497,121.334,261.328,152.216,261.328,185.46z"/>
			<circle id="XMLID_1889_" style="fill:#FFFFFF;" cx="340.243" cy="185.452" r="59.592"/>
			<path id="XMLID_2467_" style="fill:#D1D1D1;" d="M357.234,242.593c-5.38,1.589-11.081,2.448-16.987,2.448
				c-32.911,0-59.595-26.673-59.595-59.584c0-32.912,26.684-59.595,59.595-59.595c5.906,0,11.608,0.859,16.987,2.459
				c-24.643,7.313-42.608,30.12-42.608,57.136C314.626,212.473,332.59,235.281,357.234,242.593z"/>
			<g id="XMLID_1888_">
				<path id="XMLID_1705_" style="fill:#27273D;" d="M332.273,219.978c0,0.814-0.364,1.563-1.092,2.248
					c-0.728,0.686-1.521,1.028-2.376,1.028c-2.055,0-5.138,0.021-9.249,0.064c-4.111,0.042-7.194,0.065-9.249,0.065
					c-1.585,0-2.356-0.685-2.312-2.056l0.064-0.706c0.599-16.356,0.899-26.27,0.899-29.738v-19.075c0-1.199-0.279-1.798-0.835-1.798
					c-0.857,0-2.152,0.257-3.886,0.771c-1.734,0.514-3.05,0.771-3.95,0.771c-1.328,0-1.991-0.793-1.991-2.377
					c0-1.454-0.022-3.639-0.064-6.551c-0.044-2.912-0.064-5.116-0.064-6.616c0-0.856,0.535-1.498,1.606-1.926
					c6.294-2.612,11.24-6.123,14.836-10.534c0.728-0.899,1.349-1.349,1.863-1.349c0.085,0,0.342,0.043,0.771,0.129
					c1.626,0.343,4.046,0.878,7.257,1.605c1.712,0.215,4.217,0.6,7.515,1.156c0.599,0.172,0.899,0.643,0.899,1.414
					c0,0.257-0.044,0.707-0.128,1.349c-0.472,3.769-0.707,12.997-0.707,27.682c0,4.924,0.032,12.332,0.096,22.223
					C332.241,207.647,332.273,215.055,332.273,219.978z"/>
				<path id="XMLID_1758_" style="fill:#27273D;" d="M374.6,219.978c0,0.814-0.364,1.563-1.092,2.248
					c-0.728,0.686-1.52,1.028-2.376,1.028c-2.055,0-5.138,0.021-9.249,0.064c-4.111,0.042-7.194,0.065-9.249,0.065
					c-1.585,0-2.356-0.685-2.312-2.056l0.064-0.706c0.599-16.356,0.899-26.27,0.899-29.738v-19.075c0-1.199-0.279-1.798-0.835-1.798
					c-0.857,0-2.152,0.257-3.886,0.771c-1.734,0.514-3.05,0.771-3.95,0.771c-1.328,0-1.991-0.793-1.991-2.377
					c0-1.454-0.022-3.639-0.064-6.551c-0.044-2.912-0.064-5.116-0.064-6.616c0-0.856,0.535-1.498,1.606-1.926
					c6.294-2.612,11.24-6.123,14.836-10.534c0.728-0.899,1.349-1.349,1.863-1.349c0.085,0,0.342,0.043,0.771,0.129
					c1.626,0.343,4.046,0.878,7.257,1.605c1.712,0.215,4.217,0.6,7.515,1.156c0.599,0.172,0.899,0.643,0.899,1.414
					c0,0.257-0.044,0.707-0.128,1.349c-0.472,3.769-0.707,12.997-0.707,27.682c0,4.924,0.032,12.332,0.096,22.223
					C374.567,207.647,374.6,215.055,374.6,219.978z"/>
			</g>
			<circle id="XMLID_1788_" style="fill:#F4C882;" cx="451.195" cy="155.791" r="30.066"/>
		</g>
		<g id="XMLID_2499_">
			<g id="XMLID_2477_">
				<circle id="XMLID_2484_" style="fill:#DD1B1B;" cx="171.762" cy="332.249" r="159.449"/>
				<path id="XMLID_2483_" style="fill:#C11B1B;" d="M212.027,486.578c-12.864,3.339-26.351,5.122-40.267,5.122
					c-88.061,0-159.446-71.385-159.446-159.446S83.699,172.797,171.76,172.797c13.916,0,27.403,1.782,40.267,5.133
					c-68.561,17.835-119.179,80.169-119.179,154.324S143.466,468.732,212.027,486.578z"/>
				<circle id="XMLID_2482_" style="fill:#FFFFFF;" cx="171.762" cy="332.249" r="59.592"/>
				<path id="XMLID_2481_" style="fill:#D1D1D1;" d="M188.753,389.391c-5.38,1.589-11.081,2.448-16.987,2.448
					c-32.911,0-59.595-26.673-59.595-59.584c0-32.912,26.684-59.595,59.595-59.595c5.906,0,11.608,0.859,16.987,2.459
					c-24.643,7.313-42.608,30.12-42.608,57.136C146.145,359.271,164.109,382.078,188.753,389.391z"/>
				<g id="XMLID_2478_">
					<path id="XMLID_2479_" style="fill:#27273D;" d="M206.027,349.624c0,8.513-3.52,15.07-10.56,19.67
						c-5.981,3.956-13.457,5.935-22.429,5.935c-6.901,0-12.584-0.483-17.047-1.449c-9.708-2.025-14.562-3.819-14.562-5.384
						c0-0.276,0.092-0.69,0.276-1.243c0.644-1.701,1.587-4.255,2.83-7.66c0.368-1.702,1.011-4.232,1.932-7.592
						c0.414-1.149,1.104-1.725,2.07-1.725c-0.138,0,1.921,0.759,6.177,2.278c4.255,1.518,7.74,2.278,10.456,2.278
						c9.017,0,13.527-3.014,13.527-9.041c0-4.831-4.279-7.247-12.837-7.247c-1.15,0-2.669,0.046-4.555,0.138
						c-1.888,0.092-3.13,0.138-3.727,0.138c-2.807,0-4.348-0.023-4.624-0.069c-2.025-0.23-3.036-1.012-3.036-2.347
						c0-7.039,0.276-11.456,0.828-13.25c0.368-1.15,1.104-1.726,2.208-1.726c1.564,0,3.876,0.196,6.936,0.587
						c3.059,0.391,5.349,0.586,6.867,0.586c1.978,0,3.624-0.655,4.935-1.967c1.311-1.311,1.967-2.978,1.967-5.003
						c0-5.429-3.957-8.144-11.87-8.144c-3.313,0-7.799,0.897-13.458,2.691c-0.231,0.047-0.438,0.069-0.621,0.069
						c-0.599,0-1.104-0.644-1.518-1.933c-0.093-1.932-0.231-4.141-0.414-6.625c-0.046-0.552-0.185-1.656-0.414-3.313
						c-0.185-1.334-0.276-2.416-0.276-3.243c0-2.438,3.772-4.324,11.318-5.659c5.199-0.92,10.237-1.38,15.114-1.38
						c7.821,0,14.676,1.725,20.567,5.176c7.131,4.141,10.697,9.869,10.697,17.185c0,8.419-3.82,14.815-11.456,19.185
						c4.509,1.518,8.085,4.072,10.732,7.661C204.703,340.791,206.027,344.932,206.027,349.624z"/>
				</g>
			</g>
			<circle id="XMLID_2498_" style="fill:#E84646;" cx="256.046" cy="257.49" r="28.992"/>
		</g>
	</g>
</g>
</svg>
