<?xml version="1.0" encoding="utf-8"?>
<!-- Generator: Adobe Illustrator 18.0.0, SVG Export Plug-In . SVG Version: 6.00 Build 0)  -->
<!DOCTYPE svg PUBLIC "-//W3C//DTD SVG 1.1//EN" "http://www.w3.org/Graphics/SVG/1.1/DTD/svg11.dtd">
<svg version="1.1" id="Icon_Set" xmlns="http://www.w3.org/2000/svg" xmlns:xlink="http://www.w3.org/1999/xlink" x="0px" y="0px"
	 viewBox="0 0 256 256" style="enable-background:new 0 0 256 256;" xml:space="preserve">
<style type="text/css">
	.st0{fill:#484771;}
	.st1{fill:#F1C48B;}
	.st2{fill:#D5E6F7;}
	.st3{fill:#A0D1F2;}
	.st4{fill:#FD919F;}
	.st5{fill:#E0667D;}
	.st6{fill:#504774;}
	.st7{fill:#7BACF1;}
	.st8{fill:#FFFFFF;}
	.st9{fill:#D4E7F8;}
	.st10{fill:#A3D0F1;}
	.st11{fill:#4C4372;}
	.st12{fill:#7BABF3;}
	.st13{fill:#FD919E;}
	.st14{fill:#D3E6F8;}
	.st15{fill:#E8677D;}
	.st16{fill:#A4CFF2;}
</style>
<g>
	<g>
		<circle class="st1" cx="128" cy="128" r="103.873"/>
	</g>
	<g>
		<rect x="71.199" y="56.667" class="st8" width="113.599" height="98.858"/>
	</g>
	<g>
		<rect x="168.977" y="56.667" class="st2" width="15.822" height="98.858"/>
	</g>
	<g>
		<path class="st6" d="M184.799,158.524h-113.6c-1.657,0-3-1.343-3-3V56.667c0-1.657,1.343-3,3-3h113.6c1.657,0,3,1.343,3,3v98.857
			C187.799,157.182,186.456,158.524,184.799,158.524z M74.199,152.524h107.6V59.667h-107.6V152.524z"/>
	</g>
	<g>
		<path class="st3" d="M159.408,155.525H96.592v-12.743c0-8.684,7.04-15.724,15.724-15.724h31.368
			c8.684,0,15.723,7.04,15.723,15.724V155.525z"/>
	</g>
	<g>
		<path class="st12" d="M143.684,127.058h-14.676c8.684,0,15.723,7.04,15.723,15.724v12.743h14.676v-12.743
			C159.408,134.098,152.368,127.058,143.684,127.058z"/>
	</g>
	<g>
		<path class="st8" d="M128,114.15L128,114.15c-8.105,0-14.676-6.571-14.676-14.676v-7.827c0-8.105,6.571-14.676,14.676-14.676l0,0
			c8.105,0,14.676,6.571,14.676,14.676v7.827C142.676,107.579,136.106,114.15,128,114.15z"/>
	</g>
	<g>
		<path class="st6" d="M128,117.15c-9.747,0-17.676-7.93-17.676-17.677v-7.827c0-9.746,7.929-17.676,17.676-17.676
			s17.676,7.93,17.676,17.676v7.827C145.676,109.221,137.747,117.15,128,117.15z M128,79.971c-6.438,0-11.676,5.237-11.676,11.676
			v7.827c0,6.438,5.238,11.677,11.676,11.677c6.438,0,11.676-5.238,11.676-11.677v-7.827C139.676,85.208,134.438,79.971,128,79.971z
			"/>
	</g>
	<g>
		<path class="st6" d="M159.408,158.524H96.592c-1.657,0-3-1.343-3-3v-12.742c0-10.324,8.399-18.724,18.724-18.724h31.369
			c10.324,0,18.723,8.399,18.723,18.724v12.742C162.408,157.182,161.064,158.524,159.408,158.524z M99.592,152.524h56.815v-9.742
			c0-7.016-5.708-12.724-12.723-12.724h-31.369c-7.016,0-12.724,5.708-12.724,12.724V152.524z"/>
	</g>
	<g>
		<path class="st12" d="M192.166,197.333H63.834c-2.877,0-5.209-2.332-5.209-5.209v-31.391c0-2.877,2.332-5.209,5.209-5.209h128.333
			c2.877,0,5.209,2.332,5.209,5.209v31.391C197.375,195.001,195.043,197.333,192.166,197.333z"/>
	</g>
	<g>
		<path class="st6" d="M192.167,200.333H63.833c-4.526,0-8.209-3.683-8.209-8.209v-31.391c0-4.526,3.683-8.209,8.209-8.209h128.333
			c4.526,0,8.209,3.683,8.209,8.209v31.391C200.375,196.65,196.693,200.333,192.167,200.333z M63.833,158.524
			c-1.218,0-2.209,0.991-2.209,2.209v31.391c0,1.218,0.991,2.209,2.209,2.209h128.333c1.218,0,2.209-0.991,2.209-2.209v-31.391
			c0-1.218-0.991-2.209-2.209-2.209H63.833z"/>
	</g>
	<g>
		<path class="st0" d="M95.466,177.206l-1.836-0.792l1.828-0.81c0.702-0.291,1.122-0.875,1.122-1.562
			c0-0.922-0.75-1.672-1.671-1.672c-0.423,0-0.779,0.137-1.176,0.447l-1.537,1.127l0.2-1.794c0.072-0.508-0.059-0.984-0.37-1.343
			c-0.601-0.694-1.83-0.709-2.446,0.002c-0.315,0.364-0.455,0.865-0.384,1.358l0.199,1.776l-1.523-1.117
			c-0.362-0.281-0.682-0.456-1.153-0.456c-0.925,0-1.707,0.766-1.707,1.672c0,0.676,0.429,1.274,1.109,1.557l1.84,0.816
			l-1.845,0.797c-0.534,0.244-1.104,0.78-1.104,1.554c0,0.925,0.766,1.706,1.672,1.706c0.467,0,0.812-0.204,1.175-0.446l1.537-1.128
			l-0.199,1.795c-0.072,0.508,0.058,0.984,0.369,1.342c0.303,0.35,0.74,0.543,1.229,0.543c0.48,0,0.912-0.193,1.217-0.546
			c0.315-0.364,0.455-0.865,0.384-1.358l-0.2-1.775l1.555,1.14c0.341,0.228,0.684,0.432,1.122,0.432
			c0.925,0,1.706-0.766,1.706-1.672C96.58,178.103,96.151,177.492,95.466,177.206z"/>
	</g>
	<g>
		<path class="st0" d="M120.269,177.206l-1.835-0.792l1.827-0.81c0.702-0.291,1.122-0.875,1.122-1.562
			c0-0.922-0.75-1.672-1.671-1.672c-0.423,0-0.778,0.137-1.175,0.447l-1.537,1.128l0.199-1.795c0.072-0.507-0.059-0.984-0.37-1.343
			c-0.599-0.694-1.826-0.71-2.445,0.001c-0.315,0.364-0.455,0.865-0.385,1.359l0.2,1.776l-1.523-1.117
			c-0.362-0.281-0.682-0.456-1.154-0.456c-0.925,0-1.706,0.766-1.706,1.672c0,0.675,0.429,1.274,1.109,1.557l1.839,0.816
			l-1.846,0.797c-0.532,0.243-1.102,0.779-1.102,1.554c0,0.925,0.766,1.706,1.672,1.706c0.467,0,0.812-0.204,1.176-0.446
			l1.536-1.127l-0.199,1.795c-0.072,0.508,0.06,0.985,0.371,1.343c0.303,0.349,0.739,0.542,1.227,0.542
			c0.48,0,0.912-0.193,1.217-0.546c0.315-0.364,0.455-0.865,0.384-1.357l-0.2-1.776l1.556,1.14c0.341,0.228,0.684,0.432,1.121,0.432
			c0.925,0,1.706-0.766,1.706-1.672C121.383,178.103,120.954,177.492,120.269,177.206z"/>
	</g>
	<g>
		<path class="st0" d="M145.072,177.206l-1.835-0.792l1.827-0.81c0.702-0.291,1.122-0.875,1.122-1.562
			c0-0.922-0.75-1.672-1.671-1.672c-0.424,0-0.78,0.137-1.176,0.447l-1.538,1.127l0.2-1.794c0.072-0.508-0.059-0.984-0.37-1.343
			c-0.6-0.694-1.83-0.709-2.446,0.002c-0.315,0.364-0.455,0.865-0.384,1.358l0.199,1.776l-1.522-1.116
			c-0.361-0.282-0.681-0.457-1.154-0.457c-0.925,0-1.707,0.766-1.707,1.672c0,0.676,0.429,1.274,1.109,1.557l1.84,0.816
			l-1.846,0.797c-0.533,0.244-1.103,0.78-1.103,1.554c0,0.925,0.766,1.706,1.672,1.706c0.468,0,0.814-0.204,1.175-0.446l1.537-1.128
			l-0.199,1.795c-0.072,0.508,0.058,0.984,0.369,1.342c0.303,0.35,0.74,0.543,1.229,0.543c0.48,0,0.912-0.193,1.217-0.546
			c0.315-0.364,0.455-0.865,0.384-1.358l-0.2-1.776l1.555,1.14c0.341,0.228,0.683,0.433,1.122,0.433
			c0.925,0,1.706-0.766,1.706-1.672C146.186,178.103,145.757,177.492,145.072,177.206z"/>
	</g>
	<g>
		<path class="st0" d="M169.873,177.206l-1.835-0.792l1.827-0.81c0.702-0.291,1.122-0.875,1.122-1.561
			c0-0.922-0.75-1.672-1.671-1.672c-0.423,0-0.778,0.137-1.176,0.447l-1.537,1.128l0.199-1.795c0.072-0.508-0.059-0.985-0.37-1.343
			c-0.6-0.694-1.828-0.707-2.445,0.002c-0.315,0.364-0.455,0.865-0.385,1.359l0.2,1.776l-1.523-1.117
			c-0.362-0.281-0.682-0.456-1.154-0.456c-0.925,0-1.706,0.766-1.706,1.672c0,0.675,0.429,1.273,1.109,1.556l1.839,0.816
			l-1.844,0.796c-0.509,0.232-1.103,0.778-1.103,1.555c0,0.925,0.766,1.706,1.672,1.706c0.468,0,0.813-0.204,1.175-0.446
			l1.536-1.127l-0.199,1.795c-0.072,0.508,0.06,0.984,0.371,1.342c0.303,0.35,0.74,0.542,1.228,0.542
			c0.48,0,0.911-0.193,1.216-0.545c0.315-0.364,0.455-0.865,0.384-1.358l-0.2-1.776l1.555,1.14c0.341,0.228,0.684,0.433,1.123,0.433
			c0.924,0,1.705-0.766,1.705-1.672C170.987,178.102,170.558,177.491,169.873,177.206z"/>
	</g>
</g>
</svg>
